<?xml version="1.0" standalone="no"?>
<!DOCTYPE svg PUBLIC "-//W3C//DTD SVG 20010904//EN"
 "http://www.w3.org/TR/2001/REC-SVG-20010904/DTD/svg10.dtd">
<svg version="1.0" xmlns="http://www.w3.org/2000/svg"
 width="400.000000pt" height="400.000000pt" viewBox="0 0 400.000000 400.000000"
 preserveAspectRatio="xMidYMid meet">
<metadata>
Created by potrace 1.14, written by Peter Selinger 2001-2017
</metadata>
<g transform="translate(0.000000,400.000000) scale(0.100000,-0.100000)"
fill="#000000" stroke="none">
<path d="M2110 3726 c-114 -26 -251 -82 -309 -127 -13 -11 -39 -19 -58 -19
-26 0 -35 -5 -43 -24 -5 -13 -14 -27 -19 -31 -6 -3 -10 -20 -10 -38 1 -18 -11
-61 -27 -97 -25 -57 -29 -78 -31 -179 -1 -62 -5 -116 -8 -119 -3 -3 -5 -16 -5
-29 0 -24 15 -32 23 -10 3 9 7 9 17 0 10 -9 9 -24 -3 -71 -22 -86 -5 -152 44
-178 24 -12 28 -19 23 -39 -5 -19 -2 -26 12 -31 11 -3 27 -10 36 -15 10 -5 24
-6 31 -3 9 3 22 -7 35 -28 11 -18 37 -49 56 -67 43 -41 44 -47 11 -55 -17 -4
-28 -17 -36 -46 -14 -45 -40 -61 -141 -85 -323 -75 -601 -300 -718 -581 -46
-111 -85 -276 -104 -439 -22 -184 -41 -860 -25 -897 14 -35 49 -42 112 -22 37
12 89 18 182 18 l130 1 24 50 25 50 14 -52 14 -51 97 -8 c73 -5 1204 2 1376
10 39 1 55 12 55 37 0 22 1 22 55 9 45 -10 228 10 264 29 12 7 21 21 21 34 0
13 -36 175 -80 362 -44 187 -87 372 -96 410 -32 148 -156 648 -174 700 -25 73
-71 138 -123 174 -47 32 -162 71 -211 71 -27 0 -33 5 -48 43 -35 86 -34 91 15
120 100 59 158 163 165 297 4 68 9 91 27 115 36 49 53 89 61 142 6 46 9 52 35
57 38 7 37 26 0 26 -19 0 -40 10 -59 30 -17 17 -39 30 -50 30 -28 0 -35 47
-11 71 23 23 25 88 4 129 -13 25 -13 32 0 64 19 45 19 85 0 92 -8 4 -15 15
-15 25 0 11 -7 22 -15 25 -8 4 -15 14 -15 25 0 13 -10 20 -37 24 -21 3 -92 23
-159 45 -102 34 -133 40 -200 39 -43 -1 -104 -7 -134 -13z m499 -362 c17 -21
21 -41 21 -94 l0 -67 -57 -12 c-60 -12 -217 -17 -388 -11 -80 3 -107 0 -133
-14 -18 -9 -35 -23 -38 -30 -3 -9 -27 -12 -77 -12 l-72 1 3 30 c5 43 33 145
43 150 6 5 198 55 207 55 1 0 -2 -8 -7 -18 -28 -53 50 -53 199 -1 54 18 106
29 145 30 33 1 71 5 85 9 41 13 47 11 69 -16z m25 -231 c3 -21 6 -81 6 -134 0
-92 -1 -97 -22 -103 -61 -15 -143 74 -132 144 10 62 26 91 63 110 58 31 77 26
85 -17z m80 21 c9 -8 19 -27 22 -41 9 -34 -13 -127 -36 -155 -19 -23 -19 -23
-20 57 0 44 -3 97 -6 118 -5 29 -3 37 9 37 9 0 23 -7 31 -16z m-413 -14 c53
-24 54 -82 3 -181 -41 -81 -116 -109 -199 -75 -43 18 -66 63 -72 141 -6 78 7
111 49 124 42 13 185 7 219 -9z m193 6 c-6 -17 -123 -28 -141 -13 -27 20 -10
27 67 27 63 0 78 -3 74 -14z m-511 -53 c26 -5 27 -8 27 -64 0 -124 54 -184
165 -184 47 0 67 5 92 23 42 29 103 151 103 203 l0 39 48 0 47 0 1 -65 c2 -55
-1 -66 -15 -64 -32 3 -32 -1 -7 -32 21 -24 24 -34 16 -50 -13 -23 -39 -25 -66
-4 -25 19 -54 19 -54 0 0 -21 56 -47 93 -43 22 2 38 12 52 34 l21 31 27 -21
c17 -12 43 -20 68 -21 l41 0 -5 -71 c-16 -212 -189 -332 -404 -281 -77 19 -91
6 -42 -35 l34 -29 -30 7 c-16 3 -54 15 -83 25 -29 10 -78 23 -108 29 -41 9
-53 15 -45 23 21 21 11 40 -63 116 -72 74 -116 137 -116 166 0 10 -11 15 -34
15 -62 0 -87 49 -67 133 6 28 16 56 22 64 20 23 58 14 100 -24 48 -43 59 -36
59 39 0 60 11 64 123 41z"/>
<path d="M2422 3290 c-24 -23 -37 -62 -28 -85 9 -23 21 -18 33 15 15 41 56 50
88 20 27 -25 55 -21 55 9 0 52 -105 81 -148 41z"/>
<path d="M2510 3095 c-13 -35 -13 -58 3 -79 33 -45 81 17 55 71 -18 38 -45 42
-58 8z"/>
<path d="M2145 3090 c-70 -6 -65 -15 10 -22 19 -2 29 -8 27 -17 -11 -52 39
-69 66 -21 12 20 26 30 47 32 19 2 31 9 33 21 3 15 -4 17 -55 15 -32 -1 -89
-4 -128 -8z"/>
<path d="M1709 2985 c-8 -40 -1 -60 21 -63 14 -2 29 -8 35 -13 5 -5 17 -9 27
-9 21 0 24 32 5 49 -18 14 -87 43 -88 36z"/>
<path d="M2363 2663 c-78 -8 -36 -46 45 -41 39 3 47 6 47 23 0 22 -17 25 -92
18z"/>
</g>
</svg>
